<?xml version="1.0" standalone="no"?><!DOCTYPE svg PUBLIC "-//W3C//DTD SVG 1.1//EN" "http://www.w3.org/Graphics/SVG/1.1/DTD/svg11.dtd"><svg t="1507953220807" class="icon" style="" viewBox="0 0 1024 1024" version="1.1" xmlns="http://www.w3.org/2000/svg" p-id="1343" xmlns:xlink="http://www.w3.org/1999/xlink" width="32" height="32"><defs><style type="text/css"></style></defs><path d="M734.451613 578.064516l-105.806452 0L628.645161 126.967742c0-51.612903-45.419355-93.419355-101.677419-93.419355L371.096774 33.548387c-56.258065 0-101.677419 41.806452-101.677419 93.419355l0 770.064516c0 51.612903 45.419355 93.419355 101.677419 93.419355l156.387097 0c28.387097 0 55.741935-11.354839 75.354839-30.967742 17.032258-17.548387 26.322581-39.741935 25.806452-62.451613l0-249.290323 105.806452 0c10.83871 0 20.129032-9.290323 20.129032-20.129032L754.580645 598.709677C754.580645 587.354839 745.806452 578.064516 734.451613 578.064516zM577.032258 933.677419c-12.387097 12.903226-30.451613 20.129032-49.548387 20.129032L371.096774 953.806452c-36.129032 0-65.548387-25.806452-65.548387-57.290323L305.548387 126.967742c0-31.483871 29.419355-57.290323 65.548387-57.290323l155.354839 0c36.129032 0 65.548387 25.806452 65.548387 57.290323l0 451.096774L487.225806 578.064516c-11.354839 0-20.129032 9.290323-20.129032 20.129032l0 28.903226c0 11.354839 9.290323 20.129032 20.129032 20.129032l105.290323 0 0 249.806452C592.516129 910.451613 587.354839 923.354839 577.032258 933.677419z" p-id="1344" fill="#999999"></path><path d="M522.322581 386.580645c20.645161 0 37.16129-14.451613 37.16129-33.032258L559.483871 156.387097c0-18.064516-16.516129-33.032258-37.16129-33.032258l-149.677419 0c-20.645161 0-37.16129 14.451613-37.16129 33.032258l0 197.16129c0 18.064516 16.516129 33.032258 37.16129 33.032258L522.322581 386.580645zM350.967742 353.548387 350.967742 156.387097c0-9.290323 9.806452-17.548387 21.677419-17.548387l149.677419 0c11.870968 0 21.677419 7.741935 21.677419 17.548387l0 197.16129c0 9.290323-9.806452 17.548387-21.677419 17.548387l-149.677419 0C360.774194 371.096774 350.967742 362.83871 350.967742 353.548387z" p-id="1345" fill="#999999"></path><path d="M544.516129 462.451613l0-8.258065c0-18.064516-17.032258-33.032258-37.677419-33.032258L387.096774 421.16129c-20.645161 0-37.677419 14.451613-37.677419 33.032258l0 8.258065c0 18.064516 17.032258 33.032258 37.677419 33.032258l119.741935 0C528 495.483871 544.516129 481.032258 544.516129 462.451613zM364.903226 462.451613l0-8.258065c0-9.290323 10.322581-17.548387 22.193548-17.548387l119.741935 0c11.870968 0 22.193548 7.741935 22.193548 17.548387l0 8.258065c0 9.806452-9.806452 17.548387-22.193548 17.548387L387.096774 480C374.709677 480 364.903226 472.258065 364.903226 462.451613z" p-id="1346" fill="#999999"></path></svg>