<?xml version="1.0" standalone="no"?><!DOCTYPE svg PUBLIC "-//W3C//DTD SVG 1.1//EN" "http://www.w3.org/Graphics/SVG/1.1/DTD/svg11.dtd"><svg t="1522460656828" class="icon" style="" viewBox="0 0 1024 1024" version="1.1" xmlns="http://www.w3.org/2000/svg" p-id="1694" xmlns:xlink="http://www.w3.org/1999/xlink" width="48" height="48"><defs><style type="text/css"></style></defs><path d="M992.008442 211.209977c0-137.173922-247.314194-211.208954-480.007419-211.208954-231.345533 0-477.123748 73.177503-479.977743 208.821585l-0.031722-0.013303 0 608.931463 0.118703 0.045025c5.930048 133.980189 250.034137 206.213183 479.888716 206.213183 229.864812 0 473.978111-72.239133 479.888716-206.226486l0.121773-0.031722L992.009466 211.821913l-0.00921 0C991.999233 211.620322 992.008442 211.415661 992.008442 211.209977L992.008442 211.209977zM92.201751 533.39115c79.673438 64.470208 233.499588 106.25888 419.796203 106.25888 186.287405 0 340.116625-41.785602 419.796203-106.251717l0 104.819091c-20.157045 67.532958-186.913667 137.34686-419.796203 137.34686-232.936771 0-399.703626-69.845625-419.796203-137.394955L92.201751 533.39115 92.201751 533.39115zM931.800296 442.070464c-20.163185 67.528864-186.92083 137.34993-419.799272 137.34993-232.936771 0-399.703626-69.855858-419.799272-137.398025L92.201751 317.712404c87.519111 68.562402 257.220802 104.703458 419.799272 104.703458 162.575401 0 332.277092-36.136963 419.799272-104.703458L931.800296 442.070464 931.800296 442.070464zM511.997953 60.238846c242.402334 0 423.537403 79.70823 423.537403 150.972155 0 71.266994-181.135068 150.972155-423.537403 150.972155-242.405404 0-423.537403-79.70516-423.537403-150.972155C88.461574 139.947076 269.596642 60.238846 511.997953 60.238846L511.997953 60.238846zM511.997953 963.766271c-222.123516 0-392.794276-66.924092-419.796203-132.958932l0-101.276412c79.673438 64.476348 233.499588 106.26502 419.796203 106.26502 186.287405 0 340.116625-41.785602 419.796203-106.25581l0 101.263109C904.796323 896.842179 734.124539 963.766271 511.997953 963.766271L511.997953 963.766271z" p-id="1695" fill="#facc14"></path></svg>