<?xml version="1.0" standalone="no"?><!DOCTYPE svg PUBLIC "-//W3C//DTD SVG 1.1//EN" "http://www.w3.org/Graphics/SVG/1.1/DTD/svg11.dtd"><svg t="1515637818351" class="icon" style="" viewBox="0 0 1024 1024" version="1.1" xmlns="http://www.w3.org/2000/svg" p-id="1889" xmlns:xlink="http://www.w3.org/1999/xlink" width="128" height="128"><defs><style type="text/css"></style></defs><path d="M971.636 118.435c-5.818-5.842-5.818-5.842-11.636-5.842H64c-11.636 0-17.455 5.842-17.455 17.502V404.13c0 40.82 23.273 116.62 116.364 116.62h698.182c93.09 0 116.364-75.8 116.364-116.62V130.095c0-5.842 0-11.66-5.819-11.66zM936.727 404.13c0 5.818 0 75.8-75.636 75.8H162.909c-75.636 0-75.636-69.959-75.636-75.8V147.596h855.272l-5.818 256.535z" p-id="1890" fill="#cdcdcd"></path><path d="M180.364 439.133H704c11.636 0 17.455-5.818 17.455-17.478s-5.819-17.5-17.455-17.5H180.364c-11.637 0-17.455 5.817-17.455 17.5 0 11.637 5.818 17.478 17.455 17.478z m593.454 0h40.727c11.637 0 17.408-5.818 17.408-17.478s-5.771-17.5-17.408-17.5h-40.727c-11.636 0-17.454 5.817-17.454 17.5 0 11.637 5.818 17.478 17.454 17.478zM704 666.531c0-40.82 40.727-52.503 40.727-52.503 11.637 0 17.455-11.613 11.637-23.296 0-11.683-11.637-17.501-23.273-11.683-23.273 5.841-75.683 34.979-75.683 93.323 0 34.98 23.32 64.14 46.592 87.46 17.455 23.342 34.91 40.796 34.91 58.32 0 40.798-40.728 52.457-40.728 52.457-11.637 0-17.455 11.683-11.637 23.343 0 11.636 11.637 17.478 17.455 17.478h5.818c23.273-5.842 75.637-34.98 75.637-93.277 0-34.98-23.273-64.163-46.546-87.482C721.455 707.35 704 689.85 704 666.53z m-209.455 0c0-40.82 40.728-52.503 40.728-52.503 11.636 0 17.454-11.613 11.636-23.296 0-11.683-11.636-17.501-23.273-11.683-23.272 5.841-69.818 34.979-69.818 87.482 0 34.979 23.273 64.14 46.546 87.459 17.454 23.342 34.909 40.82 34.909 58.321 0 40.82-40.728 52.48-40.728 52.48-11.636 0-17.454 11.66-11.636 23.32 0 11.66 11.636 17.477 17.455 17.477h5.818c17.454-5.818 64-34.979 64-93.277 0-34.979-23.273-64.14-46.546-87.482-17.454-17.478-29.09-34.979-29.09-58.298z m-215.272 0c0-40.82 40.727-52.503 40.727-52.503 11.636 0 17.455-11.613 17.455-23.296s-11.637-17.501-23.273-11.683c-23.273 5.841-75.637 34.979-75.637 93.323 0 34.98 23.273 64.14 46.546 87.46C302.545 783.173 320 800.627 320 818.151c0 40.798-40.727 52.457-40.727 52.457-11.637 0-17.455 11.683-11.637 23.343 0 11.636 11.637 17.478 17.455 17.478h5.818c23.273-5.842 75.636-34.98 75.636-93.277 0-34.98-23.272-64.163-46.545-87.482-23.273-23.32-40.727-40.82-40.727-64.14z" p-id="1891" fill="#cdcdcd"></path></svg>