<?xml version="1.0" standalone="no"?><!DOCTYPE svg PUBLIC "-//W3C//DTD SVG 1.1//EN" "http://www.w3.org/Graphics/SVG/1.1/DTD/svg11.dtd"><svg t="1507953281905" class="icon" style="" viewBox="0 0 1024 1024" version="1.1" xmlns="http://www.w3.org/2000/svg" p-id="1972" xmlns:xlink="http://www.w3.org/1999/xlink" width="32" height="32"><defs><style type="text/css"></style></defs><path d="M972.57984 594.52928c-7.43936-16.9472-16.5632-32.4096-27.25888-46.2848V223.616c0-23.47008-18.65216-44.07296-41.5744-44.07296H131.328c-24.18176 0-42.40896 19.80416-42.40896 44.07296v325.5808a221.85984 221.85984 0 0 0-26.83904 45.25056c-16.64 37.3504-25.07776 82.0224-25.07776 132.78208V882.688a13.9008 13.9008 0 0 0 13.9008 13.9008h93.71648a13.9008 13.9008 0 0 0 13.89568-13.9008v-54.73792h716.86656V882.688a13.89568 13.89568 0 0 0 13.89568 13.9008h93.71648a13.9008 13.9008 0 0 0 13.9008-13.8752l0.3072-141.5936h0.03072v-13.89568c0-50.78016-8.2944-95.42656-24.6528-132.69504zM137.68704 248.04352c0-8.832 5.86752-14.7712 14.60736-14.7712h733.47584c8.62208 0 13.77792 7.51104 13.77792 14.7712v278.69696a220.83072 220.83072 0 0 0-3.51232-2.97984c-9.35424-7.71072-28.0832-14.26432-37.88288-19.80416V445.19424c0-57.85088-24.63744-82.5344-82.3808-82.5344H586.1888c-33.63328 0-56.09472 8.21248-69.0688 26.19904-12.98432-17.98656-35.43552-26.19392-69.0688-26.19392H253.9776c-57.74336 0-77.89056 24.6784-77.89056 82.5344v59.47392c-8.43776 4.8128-25.728 10.4192-35.4048 16.9472h-2.9952V248.04352z m683.6736 204.17536v23.20384c-23.04512-8.84224-44.71808-12.46208-60.53376-12.46208h-222.31552v-11.45344c0-41.90208 12.36992-46.52544 55.168-46.52544h173.1072c42.33216 0 54.5792 4.77696 54.5792 47.23712z m-327.13216 0.78336v8.45824H266.10688c-13.16352 0-28.12928 3.25632-53.22752 13.02528v-20.76672c0-42.46016 6.25664-48.7424 48.5888-48.7424h179.08736c42.8032 0 53.67296 6.12864 53.67296 48.0256z m-352.0512 117.43232c32.83968-40.46848 63.5904-49.42848 102.2464-53.81632l269.28128-7.48544c72.192 0 273.6384 7.48544 273.6384 7.48544 49.9712 4.38784 72.46848 25.20064 87.60832 38.84032 45.91616 41.40544 57.65632 64.39424 69.29408 143.27808H90.98752c0-61.40416 46.16192-122.27584 51.19488-128.3072z m805.98528 283.38176h-32.99328v-57.73312c0-7.68-6.2208-13.90592-13.90592-13.90592H131.13856a13.9008 13.9008 0 0 0-13.9008 13.90592v57.73312h-29.96736v-112.6912H948.4288l-0.27136 112.6912z" p-id="1973" fill="#FF6666"></path></svg>