<?xml version="1.0" standalone="no"?><!DOCTYPE svg PUBLIC "-//W3C//DTD SVG 1.1//EN" "http://www.w3.org/Graphics/SVG/1.1/DTD/svg11.dtd"><svg t="1508212090962" class="icon" style="" viewBox="0 0 1024 1024" version="1.1" xmlns="http://www.w3.org/2000/svg" p-id="2353" xmlns:xlink="http://www.w3.org/1999/xlink" width="128" height="128"><defs><style type="text/css"></style></defs><path d="M513.020748 74.248028c-243.072061 0-440.117856 196.175985-440.117856 438.175621 0 241.99759 197.045795 438.174598 440.117856 438.174598 243.067968 0 440.115809-196.177008 440.115809-438.174598C953.136557 270.425036 756.088716 74.248028 513.020748 74.248028zM512.974699 917.114644c-224.524636 0-406.538063-181.211155-406.538063-404.746254 0-223.533053 182.013427-404.745231 406.538063-404.745231 224.52566 0 406.54011 181.212178 406.54011 404.745231C919.514809 735.903489 737.500359 917.114644 512.974699 917.114644zM608.210737 333.617263c-23.915689-21.762653-55.95643-32.642444-96.123244-32.642444-37.928844 0-68.427462 10.139941-91.498924 30.411637-23.076578 20.274766-36.948517 49.479925-41.615816 87.60729l51.844785 6.137791c4.484128-28.458145 13.916964-49.383734 28.305673-62.776765 14.383592-13.390985 32.31908-20.088524 53.806463-20.088524 22.231327 0 41.005926 7.394411 56.328913 22.182208 15.316847 14.787798 22.979364 31.945573 22.979364 51.477418 0 10.789741-2.619664 20.742417-7.846712 29.851888-5.233188 9.115612-16.5837 21.345144-34.048467 36.68962-17.470907 15.346523-29.567409 27.0204-36.292578 35.015491-9.155521 10.977006-15.790638 21.858844-19.898189 32.644491-5.603625 14.325263-8.40646 31.343869-8.40646 51.058886 0 3.347235 0.091074 8.369621 0.280386 15.06716l48.480154 0c0.373507-20.088524 1.77339-34.599006 4.204765-43.525306 2.426259-8.92937 6.164397-16.833387 11.209296-23.716144 5.0449-6.878664 15.785521-17.578354 32.226982-32.085766 24.473391-21.575388 40.915875-39.897685 49.323359-54.963823 8.407484-15.06716 12.610202-31.529087 12.610202-49.383734C644.082736 381.703445 632.12438 355.379916 608.210737 333.617263zM482.942709 716.974371l57.45148 0 0-57.195653L482.942709 659.778718 482.942709 716.974371z" p-id="2354" fill="#dbdbdb"></path></svg>