<?xml version="1.0" standalone="no"?><!DOCTYPE svg PUBLIC "-//W3C//DTD SVG 1.1//EN" "http://www.w3.org/Graphics/SVG/1.1/DTD/svg11.dtd"><svg t="1507953274347" class="icon" style="" viewBox="0 0 1024 1024" version="1.1" xmlns="http://www.w3.org/2000/svg" p-id="1847" xmlns:xlink="http://www.w3.org/1999/xlink" width="32" height="32"><defs><style type="text/css"></style></defs><path d="M882.678733 199.239819H396.162896V46.334842h437.864253c27.800905 0 48.651584 20.850679 48.651584 48.651583v104.253394zM882.678733 926.696833c0 27.800905-20.850679 48.651584-48.651584 48.651583H201.556561c-27.800905 0-48.651584-20.850679-48.651584-48.651583V247.891403H882.678733V926.696833zM152.904977 94.986425c0-27.800905 20.850679-48.651584 48.651584-48.651583h48.651584v152.904977H152.904977V94.986425zM298.859729 46.334842h48.651583v152.904977h-48.651583V46.334842zM834.027149 4.633484H201.556561C148.271493 4.633484 104.253394 48.651584 104.253394 101.936652V926.696833c0 53.285068 44.0181 97.303167 97.303167 97.303167h632.470588c53.285068 0 97.303167-44.0181 97.303168-97.303167V101.936652c0-53.285068-44.0181-97.303167-97.303168-97.303168z" p-id="1848" fill="#999999"></path><path d="M518.950226 419.330317c106.570136 0 194.606335 88.036199 194.606335 194.606335s-88.036199 194.606335-194.606335 194.606334-194.606335-88.036199-194.606335-194.606334 85.719457-194.606335 194.606335-194.606335z m0 437.864253c134.371041 0 243.257919-108.886878 243.257919-243.257918S653.321267 370.678733 518.950226 370.678733s-243.257919 108.886878-243.257918 243.257919S384.579186 857.19457 518.950226 857.19457z" p-id="1849" fill="#999999"></path></svg>