<?xml version="1.0" encoding="utf-8"?>
<!-- Generator: Adobe Illustrator 16.0.0, SVG Export Plug-In . SVG Version: 6.00 Build 0)  -->
<!DOCTYPE svg PUBLIC "-//W3C//DTD SVG 1.1//EN" "http://www.w3.org/Graphics/SVG/1.1/DTD/svg11.dtd">
<svg version="1.1" id="图层_1" xmlns="http://www.w3.org/2000/svg"  x="0px" y="0px"
	 width="200px" height="200px" viewBox="0 0 200 200" enable-background="new 0 0 200 200" xml:space="preserve">
<g>
	<g>
		<path fill="#E2E2E2" d="M59.075,139.97L24.438,22.036h20.618l24.741,90.718l24.741-90.718h20.618L80.518,139.97H59.075z"/>
	</g>
</g>
<g>
	<path fill="#E2E2E2" d="M178.184,103.655h-18.968c-1.108-10.992-6.882-16.494-17.319-16.494
		c-9.896,0.554-14.845,4.948-14.845,13.195c0,7.151,6.598,12.925,19.793,17.318c20.889,7.706,31.339,19.522,31.339,35.463
		c-0.554,23.092-12.654,34.908-36.287,35.463c-23.092-1.096-35.462-13.467-37.112-37.112h18.969
		c1.096,12.654,7.693,18.968,19.793,18.968c9.896,0,15.115-5.219,15.67-15.669c0-7.139-7.152-13.195-21.442-18.144
		c-19.793-7.139-29.689-18.685-29.689-34.638c0.541-21.984,12.087-33.53,34.638-34.638
		C164.705,69.017,176.534,81.117,178.184,103.655z"/>
</g>
</svg>
